<svg width="1600" height="719" viewBox="0 0 1600 719" fill="none" xmlns="http://www.w3.org/2000/svg">
<g clip-path="url(#clip0_20_630)">
<path d="M1600 0H0V718.652H1600V0Z" fill="#B51D44"/>
<path d="M1482.82 622.075H1479.92V717.567H1482.82V622.075Z" fill="#3F3D56"/>
<path d="M1481.37 635.579C1489.8 635.579 1496.62 629.533 1496.62 622.075C1496.62 614.617 1489.8 608.571 1481.37 608.571C1472.95 608.571 1466.12 614.617 1466.12 622.075C1466.12 629.533 1472.95 635.579 1481.37 635.579Z" fill="#3F3D56"/>
<path d="M1481.37 680.929C1481.37 680.929 1479.19 639.437 1434.53 644.26L1481.37 680.929Z" fill="#3F3D56"/>
<path d="M86.0994 672.286C94.9011 701.096 125.049 718.939 125.049 718.939C125.049 718.939 140.926 690.071 132.125 661.261C123.323 632.451 93.1751 614.608 93.1751 614.608C93.1751 614.608 77.2977 643.476 86.0994 672.286Z" fill="white"/>
<path d="M99.0329 666.095C123.185 686.913 126.135 718.916 126.135 718.916C126.135 718.916 89.9267 717.165 65.7748 696.347C41.6228 675.528 38.6729 643.525 38.6729 643.525C38.6729 643.525 74.8809 645.276 99.0329 666.095Z" fill="#3F3D56"/>
<path opacity="0.1" d="M640.913 0L0 389.663V300.884L494.971 0H640.913Z" fill="black"/>
<path opacity="0.1" d="M398.507 0L0 242.25V153.522L252.551 0H398.507Z" fill="black"/>
<path opacity="0.1" d="M135.449 0L0 82.3369V0H135.449Z" fill="black"/>
<path d="M1187.24 384.132H373V386.698H1187.24V384.132Z" fill="#3F3D56"/>
<path d="M920.391 682.799C916.952 682.799 913.589 681.896 910.729 680.204C907.869 678.512 905.64 676.107 904.324 673.293C903.008 670.479 902.663 667.383 903.334 664.395C904.005 661.408 905.662 658.664 908.094 656.51C910.526 654.357 913.625 652.89 916.998 652.296C920.372 651.702 923.869 652.007 927.047 653.172C930.225 654.338 932.941 656.312 934.852 658.844C936.763 661.376 937.783 664.354 937.783 667.4C937.777 671.482 935.943 675.397 932.683 678.284C929.423 681.171 925.002 682.795 920.391 682.799ZM920.391 654.567C917.525 654.567 914.723 655.319 912.34 656.729C909.956 658.139 908.099 660.144 907.002 662.489C905.905 664.834 905.618 667.414 906.177 669.903C906.736 672.393 908.117 674.679 910.143 676.474C912.17 678.269 914.753 679.491 917.564 679.986C920.375 680.481 923.289 680.227 925.937 679.256C928.586 678.285 930.849 676.64 932.442 674.529C934.034 672.419 934.884 669.938 934.884 667.4C934.88 663.997 933.351 660.735 930.634 658.33C927.918 655.924 924.234 654.57 920.391 654.567Z" fill="#F0F0F0"/>
<path d="M385.61 254.334H357V229H385.61V254.334ZM359.201 252.385H383.41V230.949H359.201V252.385Z" fill="#3F3D56"/>
<path d="M1150.5 403.806L1130.98 385.28L1151.9 368L1171.42 386.526L1150.5 403.806ZM1134.09 385.376L1150.6 401.052L1168.31 386.43L1151.79 370.754L1134.09 385.376Z" fill="#F0F0F0"/>
<path opacity="0.1" d="M1600 146.297V513.322C1545.03 513.322 1492.32 493.988 1453.45 459.573C1414.59 425.158 1392.75 378.48 1392.75 329.81C1392.75 281.139 1414.59 234.462 1453.45 200.047C1492.32 165.631 1545.03 146.297 1600 146.297Z" fill="black"/>
<path opacity="0.1" d="M1408.7 336.226C1496.74 336.226 1568.12 273.025 1568.12 195.063C1568.12 117.1 1496.74 53.8989 1408.7 53.8989C1320.65 53.8989 1249.28 117.1 1249.28 195.063C1249.28 273.025 1320.65 336.226 1408.7 336.226Z" fill="black"/>
<path opacity="0.1" d="M1268.12 184.796C1312.94 184.796 1349.28 152.621 1349.28 112.931C1349.28 73.241 1312.94 41.0659 1268.12 41.0659C1223.29 41.0659 1186.96 73.241 1186.96 112.931C1186.96 152.621 1223.29 184.796 1268.12 184.796Z" fill="black"/>
<path d="M1268.57 150.24C1260.22 150.24 1252.06 148.048 1245.12 143.943C1238.18 139.837 1232.77 134.001 1229.58 127.174C1226.39 120.346 1225.55 112.834 1227.18 105.586C1228.81 98.3375 1232.83 91.6797 1238.73 86.4542C1244.63 81.2286 1252.15 77.6699 1260.33 76.2282C1268.52 74.7865 1277 75.5265 1284.71 78.3545C1292.42 81.1825 1299.01 85.9717 1303.65 92.1163C1308.29 98.2609 1310.76 105.485 1310.76 112.875C1310.75 122.781 1306.3 132.279 1298.39 139.284C1290.48 146.288 1279.75 150.229 1268.57 150.24Z" fill="#3F3D56"/>
<g clip-path="url(#clip1_20_630)">
<path d="M628 274.774V279.004L666.874 278.647V274.774H628Z" fill="white"/>
<path d="M628 301.885V306.115L666.874 305.758V301.885H628Z" fill="white"/>
<path d="M628 329.771V334L666.874 333.643V329.771H628Z" fill="white"/>
<path d="M754.73 274V278.229L793.604 277.873V274H754.73Z" fill="white"/>
<path d="M754.73 301.111V305.34L793.604 304.984V301.111H754.73Z" fill="white"/>
<path d="M754.73 328.996V333.225L793.604 332.869V328.996H754.73Z" fill="white"/>
<path d="M680.449 274.774H685.409L708.469 327.834L733.147 274.774H737.718L711.113 334H707.047L680.449 274.774Z" fill="white"/>
<path d="M820.194 334H816.026V274.774H820.194L860.079 327.059V274.774H863.865V334H860.094L820.427 283.682L820.194 334Z" fill="white"/>
<path d="M880.736 274.774H927.789V278.74H906.447V334H902.179V278.26H880.736V274.774Z" fill="white"/>
<path d="M957.427 286.781H953.376V321.854H957.427V286.781Z" fill="white"/>
<path d="M973.008 302.296H937.803V306.332H973.008V302.296Z" fill="white"/>
</g>
</g>
<defs>
<clipPath id="clip0_20_630">
<rect width="1600" height="719" fill="white"/>
</clipPath>
<clipPath id="clip1_20_630">
<rect width="345" height="60" fill="white" transform="translate(628 274)"/>
</clipPath>
</defs>
</svg>
